REM DIRINDEX 1\2,1\3,1\4,1\5,1\6
REM DIRNAME cjc030,folder01,folder02,folder03,folder04,folder05
TITLE ""
FILE "Disc6Track57.mp3" MP3
  TRACK 01 AUDIO
    TITLE "3:cjc030_12094"
    INDEX 01 00:00:00
  TRACK 02 AUDIO
    TITLE "0:"
    INDEX 01 00:01:05
  TRACK 03 AUDIO
    TITLE "4:cjc030_12095"
    INDEX 01 00:01:15
  TRACK 04 AUDIO
    TITLE "0:"
    INDEX 01 00:03:00
  TRACK 05 AUDIO
    TITLE "5:cjc030_12096"
    INDEX 01 00:03:08
  TRACK 06 AUDIO
    TITLE "0:"
    INDEX 01 00:04:17
  TRACK 07 AUDIO
    TITLE "6:cjc030_12097"
    INDEX 01 00:04:31
  TRACK 08 AUDIO
    TITLE "0:"
    INDEX 01 00:09:30
  TRACK 09 AUDIO
    TITLE "3:cjc030_12098"
    INDEX 01 00:10:04
  TRACK 10 AUDIO
    TITLE "0:"
    INDEX 01 00:11:15
  TRACK 11 AUDIO
    TITLE "4:cjc030_12099"
    INDEX 01 00:11:23
  TRACK 12 AUDIO
    TITLE "0:"
    INDEX 01 00:12:14
  TRACK 13 AUDIO
    TITLE "5:cjc030_12100"
    INDEX 01 00:12:26
  TRACK 14 AUDIO
    TITLE "0:"
    INDEX 01 00:13:37
  TRACK 15 AUDIO
    TITLE "3:cjc030_12101"
    INDEX 01 00:14:21
  TRACK 16 AUDIO
    TITLE "0:"
    INDEX 01 00:15:28
  TRACK 17 AUDIO
    TITLE "4:cjc030_12102"
    INDEX 01 00:15:38
  TRACK 18 AUDIO
    TITLE "0:"
    INDEX 01 00:16:34
  TRACK 19 AUDIO
    TITLE "5:cjc030_12103"
    INDEX 01 00:16:40
  TRACK 20 AUDIO
    TITLE "0:"
    INDEX 01 00:17:51
  TRACK 21 AUDIO
    TITLE "3:cjc030_12104"
    INDEX 01 00:18:33
  TRACK 22 AUDIO
    TITLE "0:"
    INDEX 01 00:19:52
  TRACK 23 AUDIO
    TITLE "4:cjc030_12105"
    INDEX 01 00:19:63
  TRACK 24 AUDIO
    TITLE "0:"
    INDEX 01 00:20:67
  TRACK 25 AUDIO
    TITLE "5:cjc030_12106"
    INDEX 01 00:20:71
  TRACK 26 AUDIO
    TITLE "0:"
    INDEX 01 00:22:21
  TRACK 27 AUDIO
    TITLE "6:cjc030_12107"
    INDEX 01 00:22:34
  TRACK 28 AUDIO
    TITLE "0:"
    INDEX 01 00:24:20
  TRACK 29 AUDIO
    TITLE "3:cjc030_12108"
    INDEX 01 00:24:71
  TRACK 30 AUDIO
    TITLE "0:"
    INDEX 01 00:25:74
  TRACK 31 AUDIO
    TITLE "4:cjc030_12109"
    INDEX 01 00:26:07
  TRACK 32 AUDIO
    TITLE "0:"
    INDEX 01 00:27:12
  TRACK 33 AUDIO
    TITLE "5:cjc030_12110"
    INDEX 01 00:27:18
  TRACK 34 AUDIO
    TITLE "0:"
    INDEX 01 00:28:25
  TRACK 35 AUDIO
    TITLE "3:cjc030_12111"
    INDEX 01 00:29:03
  TRACK 36 AUDIO
    TITLE "0:"
    INDEX 01 00:30:06
  TRACK 37 AUDIO
    TITLE "4:cjc030_12112"
    INDEX 01 00:30:18
  TRACK 38 AUDIO
    TITLE "0:"
    INDEX 01 00:32:07
  TRACK 39 AUDIO
    TITLE "5:cjc030_12113"
    INDEX 01 00:32:15
  TRACK 40 AUDIO
    TITLE "0:"
    INDEX 01 00:33:21
  TRACK 41 AUDIO
    TITLE "6:cjc030_12114"
    INDEX 01 00:33:30
  TRACK 42 AUDIO
    TITLE "0:"
    INDEX 01 00:39:09
  TRACK 43 AUDIO
    TITLE "3:cjc030_12115"
    INDEX 01 00:39:51
  TRACK 44 AUDIO
    TITLE "0:"
    INDEX 01 00:40:73
  TRACK 45 AUDIO
    TITLE "4:cjc030_12116"
    INDEX 01 00:41:12
  TRACK 46 AUDIO
    TITLE "0:"
    INDEX 01 00:42:41
  TRACK 47 AUDIO
    TITLE "5:cjc030_12117"
    INDEX 01 00:42:49
  TRACK 48 AUDIO
    TITLE "0:"
    INDEX 01 00:43:74
  TRACK 49 AUDIO
    TITLE "6:cjc030_12118"
    INDEX 01 00:44:09
  TRACK 50 AUDIO
    TITLE "0:"
    INDEX 01 00:46:09
  TRACK 51 AUDIO
    TITLE "3:cjc030_12119"
    INDEX 01 00:46:56
  TRACK 52 AUDIO
    TITLE "0:"
    INDEX 01 00:48:02
  TRACK 53 AUDIO
    TITLE "4:cjc030_12120"
    INDEX 01 00:48:14
  TRACK 54 AUDIO
    TITLE "0:"
    INDEX 01 00:49:35
  TRACK 55 AUDIO
    TITLE "5:cjc030_12121"
    INDEX 01 00:49:47
  TRACK 56 AUDIO
    TITLE "0:"
    INDEX 01 00:50:68
  TRACK 57 AUDIO
    TITLE "6:cjc030_12122"
    INDEX 01 00:51:07
  TRACK 58 AUDIO
    TITLE "0:"
    INDEX 01 00:55:42
  TRACK 59 AUDIO
    TITLE "3:cjc030_12123"
    INDEX 01 00:56:18
  TRACK 60 AUDIO
    TITLE "0:"
    INDEX 01 00:57:48
  TRACK 61 AUDIO
    TITLE "4:cjc030_12124"
    INDEX 01 00:57:58
  TRACK 62 AUDIO
    TITLE "0:"
    INDEX 01 00:58:48
  TRACK 63 AUDIO
    TITLE "5:cjc030_12125"
    INDEX 01 00:58:58
  TRACK 64 AUDIO
    TITLE "0:"
    INDEX 01 01:00:17
  TRACK 65 AUDIO
    TITLE "3:cjc030_12126"
    INDEX 01 01:00:70
  TRACK 66 AUDIO
    TITLE "0:"
    INDEX 01 01:02:14
  TRACK 67 AUDIO
    TITLE "4:cjc030_12127"
    INDEX 01 01:02:24
  TRACK 68 AUDIO
    TITLE "0:"
    INDEX 01 01:04:19
  TRACK 69 AUDIO
    TITLE "5:cjc030_12128"
    INDEX 01 01:04:25
  TRACK 70 AUDIO
    TITLE "0:"
    INDEX 01 01:05:46
  TRACK 71 AUDIO
    TITLE "6:cjc030_12129"
    INDEX 01 01:05:60
  TRACK 72 AUDIO
    TITLE "0:"
    INDEX 01 01:08:52
